<svg width="192" height="192" viewBox="0 0 192 192" fill="none" xmlns="http://www.w3.org/2000/svg">
<rect width="192" height="192" fill="#EEEEEE"/>
<path d="M135.879 103.127C135.457 91.8977 133.768 80.6689 133.768 69.4401C133.768 60.2907 135.457 50.7254 132.08 41.9919C132.08 41.1601 132.502 39.9125 132.502 39.0807C133.346 34.506 118.57 37.0013 116.46 41.1601C115.193 42.4078 114.349 43.6554 114.771 45.319C114.771 45.7348 115.193 46.1507 115.193 46.5666C112.238 59.8748 108.439 73.1831 104.217 86.0754C102.528 91.066 100.418 96.0566 98.7289 101.047C96.1959 96.4724 93.663 91.8977 91.5522 86.9072C85.6419 72.3513 80.576 57.7954 73.3992 44.0713C74.2435 37.8331 59.89 38.249 56.9349 44.0713C53.5576 51.1413 53.9798 58.2113 55.2463 66.1131C56.5128 74.8466 56.9349 83.1642 56.9349 91.8977C56.9349 108.533 58.6236 125.168 58.6236 141.804C56.9349 143.467 56.5128 145.547 58.2014 147.626C59.0457 148.458 59.89 149.289 60.7344 150.121C64.5338 153.032 75.51 150.537 75.51 144.715C75.51 127.248 74.2435 110.197 73.8214 92.7295C73.8214 91.066 73.8214 89.4025 73.8214 87.7389C74.2435 88.1548 74.2435 88.9866 74.6657 89.4024C77.1987 96.0566 80.1538 102.711 83.9532 108.949C87.7527 115.187 89.4413 121.841 91.5522 128.495C90.7078 129.327 90.2857 130.575 90.7078 131.407C90.7078 132.238 91.13 132.654 91.9743 133.07C94.5073 135.565 99.9954 134.318 102.528 133.07C103.795 132.654 105.061 131.822 105.906 131.407C107.172 130.575 109.705 128.495 108.861 126.416C108.861 126 108.439 125.584 108.439 125.168C110.549 119.762 111.394 114.355 112.66 108.533C113.927 102.711 116.038 96.8883 118.148 91.066C118.57 93.5613 118.57 96.4724 118.993 98.9677C119.837 109.781 118.993 120.178 118.993 130.991C118.993 134.734 119.415 137.645 119.837 141.388C120.259 142.635 121.526 148.874 121.103 149.289C118.57 151.785 119.415 154.696 122.792 155.112C126.592 155.944 131.657 154.696 134.613 152.201C139.679 147.626 137.146 140.14 136.301 134.318C133.768 124.337 135.879 113.108 135.879 103.127Z" fill="black"/>
</svg>
