<svg width="180" height="180" viewBox="0 0 180 180" fill="none" xmlns="http://www.w3.org/2000/svg">
<rect width="180" height="180" fill="#EEEEEE"/>
<path d="M127.387 96.6811C126.991 86.1541 125.408 75.6271 125.408 65.1001C125.408 56.5225 126.991 47.5551 123.825 39.3674C123.825 38.5876 124.22 37.418 124.22 36.6382C125.012 32.3494 111.16 34.6887 109.181 38.5876C107.994 39.7573 107.202 40.927 107.598 42.4865C107.598 42.8764 107.994 43.2663 107.994 43.6562C105.223 56.1326 101.661 68.6091 97.7034 80.6957C96.1203 85.3744 94.1414 90.053 92.5583 94.7317C90.1836 90.4429 87.809 86.1541 85.8301 81.4755C80.2892 67.8293 75.5399 54.1832 68.8117 41.3169C69.6033 35.4685 56.1469 35.8584 53.3764 41.3169C50.2102 47.945 50.606 54.5731 51.7933 61.981C52.9807 70.1687 53.3764 77.9665 53.3764 86.1541C53.3764 101.75 54.9596 117.345 54.9596 132.941C53.3764 134.5 52.9807 136.45 54.5638 138.399C55.3553 139.179 56.1469 139.959 56.9384 140.739C60.5004 143.468 70.7906 141.129 70.7906 135.67C70.7906 119.295 69.6033 103.309 69.2075 86.9339C69.2075 85.3743 69.2075 83.8148 69.2075 82.2552C69.6033 82.6451 69.6033 83.4249 69.999 83.8148C72.3737 90.053 75.1441 96.2913 78.7061 102.14C82.2681 107.988 83.8512 114.226 85.8301 120.464C85.0385 121.244 84.6428 122.414 85.0385 123.194C85.0385 123.973 85.4343 124.363 86.2259 124.753C88.6005 127.093 93.7456 125.923 96.1203 124.753C97.3076 124.363 98.495 123.584 99.2865 123.194C100.474 122.414 102.848 120.464 102.057 118.515C102.057 118.125 101.661 117.735 101.661 117.345C103.64 112.277 104.432 107.208 105.619 101.75C106.806 96.2913 108.785 90.8328 110.764 85.3744C111.16 87.7137 111.16 90.4429 111.556 92.7822C112.347 102.919 111.556 112.667 111.556 122.804C111.556 126.313 111.951 129.042 112.347 132.551C112.743 133.721 113.93 139.569 113.534 139.959C111.16 142.298 111.951 145.027 115.118 145.417C118.68 146.197 123.429 145.027 126.199 142.688C130.949 138.399 128.574 131.381 127.782 125.923C125.408 116.565 127.387 106.038 127.387 96.6811Z" fill="black"/>
</svg>
