<svg width="192" height="192" fill="none" xmlns="http://www.w3.org/2000/svg"><path fill="#EEE" d="M0 0h192v192H0z"/><path d="M135.879 103.127c-.422-11.23-2.111-22.458-2.111-33.687 0-9.15 1.689-18.715-1.688-27.448 0-.832.422-2.08.422-2.911.844-4.575-13.932-2.08-16.042 2.08-1.267 1.247-2.111 2.494-1.689 4.158 0 .416.422.832.422 1.248-2.955 13.308-6.754 26.616-10.976 39.508-1.689 4.991-3.799 9.982-5.488 14.972-2.533-4.575-5.066-9.15-7.177-14.14-5.91-14.556-10.976-29.112-18.153-42.836.844-6.238-13.509-5.822-16.464 0-3.377 7.07-2.955 14.14-1.689 22.042 1.267 8.734 1.689 17.051 1.689 25.785 0 16.635 1.689 33.27 1.689 49.906-1.69 1.663-2.111 3.743-.423 5.822l2.533 2.495c3.8 2.911 14.776.416 14.776-5.406 0-17.467-1.267-34.518-1.689-51.986v-4.99c.422.416.422 1.248.845 1.663 2.533 6.655 5.488 13.309 9.287 19.547 3.8 6.238 5.488 12.892 7.6 19.546-.845.832-1.267 2.08-.845 2.912 0 .831.422 1.247 1.266 1.663 2.533 2.495 8.021 1.248 10.554 0 1.267-.416 2.533-1.248 3.378-1.663 1.266-.832 3.799-2.912 2.955-4.991 0-.416-.422-.832-.422-1.248 2.11-5.406 2.955-10.813 4.221-16.635 1.267-5.822 3.378-11.645 5.488-17.467.422 2.495.422 5.406.845 7.902.844 10.813 0 21.21 0 32.023 0 3.743.422 6.654.844 10.397.422 1.247 1.689 7.486 1.266 7.901-2.533 2.496-1.688 5.407 1.689 5.823 3.8.832 8.865-.416 11.821-2.911 5.066-4.575 2.533-12.061 1.688-17.883-2.533-9.981-.422-21.21-.422-31.191Z" fill="#000"/></svg>