<svg width="180" height="180" fill="none" xmlns="http://www.w3.org/2000/svg"><path fill="#EEE" d="M0 0h180v180H0z"/><path d="M127.387 96.681c-.396-10.527-1.979-21.054-1.979-31.58 0-8.578 1.583-17.546-1.583-25.734 0-.78.395-1.949.395-2.729.792-4.289-13.06-1.95-15.039 1.95-1.187 1.17-1.979 2.339-1.583 3.898 0 .39.396.78.396 1.17-2.771 12.477-6.333 24.953-10.29 37.04-1.584 4.678-3.563 9.357-5.146 14.036-2.374-4.29-4.749-8.578-6.728-13.257-5.54-13.646-10.29-27.292-17.018-40.158.791-5.849-12.665-5.459-15.436 0-3.166 6.628-2.77 13.256-1.583 20.664 1.188 8.188 1.583 15.985 1.583 24.173 0 15.596 1.584 31.191 1.584 46.787-1.584 1.559-1.98 3.509-.396 5.458l2.374 2.34c3.562 2.729 13.853.39 13.853-5.069 0-16.375-1.188-32.361-1.584-48.736v-4.679c.396.39.396 1.17.792 1.56 2.375 6.238 5.145 12.476 8.707 18.325 3.562 5.848 5.145 12.086 7.124 18.324-.791.78-1.187 1.95-.791 2.73 0 .779.395 1.169 1.187 1.559 2.374 2.34 7.52 1.17 9.894 0 1.188-.39 2.375-1.169 3.166-1.559 1.188-.78 3.562-2.73 2.771-4.679 0-.39-.396-.78-.396-1.17 1.979-5.068 2.771-10.137 3.958-15.595 1.187-5.459 3.166-10.917 5.145-16.376.396 2.34.396 5.069.792 7.408.791 10.137 0 19.885 0 30.022 0 3.509.395 6.238.791 9.747.396 1.17 1.583 7.018 1.187 7.408-2.374 2.339-1.583 5.068 1.584 5.458 3.562.78 8.311-.39 11.081-2.729 4.75-4.289 2.375-11.307 1.583-16.765-2.374-9.358-.395-19.885-.395-29.242Z" fill="#000"/></svg>